<svg xmlns="http://www.w3.org/2000/svg" viewBox="0 0 42 42"><path d="M12.1 29.04v1.92c0 .33.26.59.59.59h3.36c.33 0 .59-.26.59-.59v-1.92h-4.55Zm2.44-18.01a.4.4 0 0 0-.3 0c-2.1.92-2.14 3.95-2.14 3.95v12.29h4.54V14.98s-.03-3.03-2.11-3.95Zm4.25 18.01v1.92c0 .33.26.59.59.59h3.37c.32 0 .59-.27.59-.59v-1.92zm2.42-18.01a.4.4 0 0 0-.3 0c-2.09.92-2.14 3.95-2.14 3.95v12.29h4.55V14.98s-.02-3.03-2.11-3.95m4.27 18.01v1.92c0 .33.26.59.59.59h3.37c.33 0 .59-.26.59-.59v-1.92zm2.42-18.01a.37.37 0 0 0-.29 0c-2.1.92-2.14 3.95-2.14 3.95v12.29h4.55V14.98s-.02-3.03-2.11-3.95Z" style="fill:#fff"/><circle cx="21" cy="21" r="19.18" style="fill:none;stroke:#fff;stroke-width:2px"/></svg>