<svg xmlns="http://www.w3.org/2000/svg" width="40" height="40" fill="none" viewBox="0 0 40 40"><path fill="#fff" d="M4.053 7.908h15.548v13.935H2.561V9.401a1.493 1.493 0 0 1 1.492-1.493M9.882 24.075c-3.217 0-5.83 1.888-5.83 4.217s2.613 4.21 5.83 4.21 5.822-1.889 5.822-4.21-2.605-4.217-5.822-4.217m0 7.203c-1.843 0-3.329-1-3.329-2.24 0-1.239 1.493-2.239 3.33-2.239 1.835 0 3.328 1.008 3.328 2.24 0 1.231-1.493 2.239-3.329 2.239M3.732 24.075H0v2.24h2.24a6.1 6.1 0 0 1 1.492-2.24M30.849 24.075c-3.217 0-5.83 1.888-5.83 4.217s2.613 4.21 5.83 4.21 5.822-1.889 5.822-4.21-2.605-4.217-5.822-4.217m0 7.203c-1.836 0-3.329-1-3.329-2.24 0-1.239 1.493-2.239 3.329-2.239s3.329 1.008 3.329 2.24c0 1.231-1.493 2.239-3.329 2.239"/><path fill="#fff" d="M40 26.322V14.536a2.986 2.986 0 0 0-2.985-2.986H32.85l-2.695-4.404a1.49 1.49 0 0 0-1.269-.746h-6.33a.747.747 0 0 0-.746.746v16.922h-5.777a6.2 6.2 0 0 1 1.545 2.239h4.113a.746.746 0 0 0 1.31.447.8.8 0 0 0 .145-.253 6.5 6.5 0 0 1 1-1.851 9.35 9.35 0 0 1 13.399 0 6.6 6.6 0 0 1 1.007 1.858.747.747 0 0 0 1.297.218.75.75 0 0 0 .151-.404M23.46 7.908h4.83a.75.75 0 0 1 .634.35l2 3.292H23.46z"/></svg>