<svg xmlns="http://www.w3.org/2000/svg" width="40" height="40" fill="none" viewBox="0 0 40 40"><path fill="#fff" d="M32.376 24.681c-2.675 0-4.842 1.57-4.842 3.508 0 1.936 2.167 3.5 4.842 3.5 2.676 0 4.849-1.57 4.849-3.5 0-1.931-2.167-3.508-4.849-3.508m0 5.99c-1.527 0-2.768-.831-2.768-1.862 0-1.03 1.241-1.862 2.768-1.862 1.528 0 2.77.838 2.77 1.862s-1.236 1.863-2.77 1.863M16.435 37.085l11.72-32.207a.93.93 0 0 0-.875-1.242.93.93 0 0 0-.875.621L14.697 36.451a.932.932 0 0 0 .875 1.242.94.94 0 0 0 .863-.608M15.59 28.543l5.296-14.552A10.956 10.956 0 1 0 7.849 29.132l2.576 4.6a.62.62 0 0 0 1.03 0l2.577-4.6a11 11 0 0 0 1.558-.59m-4.122-3.315a.68.68 0 0 1-.968 0L4.373 19.1a.683.683 0 0 1 0-.968l6.127-6.127a.683.683 0 0 1 .968 0l6.128 6.127a.68.68 0 0 1 0 .968z"/><path fill="#fff" d="M21.928 18.61a10.3 10.3 0 0 0-.143-1.651l-3.588 9.864a10.93 10.93 0 0 0 3.731-8.213"/><path fill="#fff" d="M25.48 9.987a.62.62 0 0 0-.621.62l-3.893 12.851-.912 1.242q.343.335.62.726l5.588-15.42zM37.541 14.264h-3.464l-2.24-3.662a1.24 1.24 0 0 0-1.062-.621h-2.483l-.447 1.241h2.408a.62.62 0 0 1 .528.292l1.664 2.72H26.74l-4.476 12.303h2.483a.621.621 0 0 0 1.204.162 5.7 5.7 0 0 1 .832-1.54 7.79 7.79 0 0 1 11.174 0c.36.467.644.99.838 1.546a.62.62 0 0 0 1.078.18.6.6 0 0 0 .127-.341v-9.797a2.484 2.484 0 0 0-2.459-2.483"/></svg>