<svg xmlns="http://www.w3.org/2000/svg" viewBox="0 0 42 42"><path d="M31.01 17.53h-5.77c-.12 0-.22-.1-.22-.22v-5.77c0-.3-.24-.54-.54-.54h-6.4c-.3 0-.54.24-.54.54v5.77c0 .12-.1.22-.22.22h-5.77c-.3 0-.54.24-.54.54v6.4c0 .3.24.54.54.54h5.77c.12 0 .22.1.22.22V31c0 .3.24.54.54.54h6.4c.3 0 .54-.24.54-.54v-5.76c0-.12.1-.22.22-.22h5.77c.3 0 .54-.24.54-.54v-6.41c0-.3-.23-.55-.53-.55Z" style="fill:#fff;fill-rule:evenodd"/><circle cx="21" cy="21" r="19.18" style="fill:none;stroke:#fff;stroke-width:2px"/></svg>